<svg width="48" height="48" viewBox="0 0 48 48" fill="none" xmlns="http://www.w3.org/2000/svg">
<path d="M36.8045 29.2222L36.806 29.2222C37.7467 29.2186 38.6846 29.1304 39.6085 28.9589C38.9905 31.2395 37.832 33.3411 36.227 35.0826C34.4454 37.0157 32.179 38.4342 29.6642 39.1903C27.1495 39.9464 24.4783 40.0125 21.9294 39.3815C19.3805 38.7506 17.0471 37.4458 15.1726 35.6031C13.2982 33.7604 11.9513 31.4473 11.2727 28.905C10.594 26.3628 10.6085 23.6845 11.3147 21.1498C12.0208 18.615 13.3926 16.3167 15.2869 14.4945C16.9934 12.853 19.0676 11.652 21.3305 10.989C20.9969 13.0325 21.0696 15.1248 21.5475 17.1448C22.0873 19.4265 23.1304 21.5581 24.6002 23.383C26.0699 25.2078 27.929 26.6796 30.041 27.6901C32.153 28.7006 34.464 29.2242 36.8045 29.2222Z" fill="#FFF133" stroke="#231815"/>
</svg>
