<svg width="48" height="48" viewBox="0 0 48 48" fill="none" xmlns="http://www.w3.org/2000/svg">
<path d="M24.0001 32.1408C28.4961 32.1408 32.1409 28.496 32.1409 24C32.1409 19.504 28.4961 15.8592 24.0001 15.8592C19.504 15.8592 15.8593 19.504 15.8593 24C15.8593 28.496 19.504 32.1408 24.0001 32.1408Z" fill="#FFF133"/>
<path d="M31.4208 24C31.3959 27.0653 29.4749 29.9222 26.5623 30.9686C25.1102 31.4885 23.5334 31.5491 22.0458 31.142C20.5582 30.735 19.2318 29.8801 18.2468 28.6934C16.2768 26.3097 16.0503 22.824 17.6343 20.1821C19.2183 17.5401 22.4112 16.0973 25.4487 16.7184C27.1258 17.0681 28.6327 17.9811 29.7192 19.3057C30.8056 20.6304 31.4061 22.2869 31.4208 24C31.4285 24.9264 32.8685 24.9283 32.8608 24C32.845 22.1807 32.2764 20.4092 31.2306 18.9204C30.1847 17.4317 28.711 16.2961 27.0048 15.6643C23.5412 14.3885 19.4669 15.5184 17.1485 18.3849C14.8301 21.2515 14.4807 25.3593 16.3901 28.5446C18.3101 31.7501 22.1088 33.4041 25.7674 32.6832C29.8714 31.872 32.832 28.1433 32.8608 24C32.8685 23.0736 31.4285 23.0726 31.4208 24Z" fill="#231815"/>
<path d="M24.72 12.6135V9.54147C24.72 8.61507 23.28 8.61315 23.28 9.54147V12.6135C23.28 13.5399 24.72 13.5418 24.72 12.6135Z" fill="#231815"/>
<path d="M18.9284 13.7751L17.3924 11.1168C16.9287 10.3143 15.6845 11.0391 16.1444 11.8435L17.6804 14.5018C18.1441 15.3043 19.3882 14.5795 18.9284 13.7751Z" fill="#231815"/>
<path d="M14.5018 17.6851L11.8435 16.1491C11.0391 15.6845 10.3133 16.9286 11.1168 17.3971L13.7751 18.9331C14.5795 19.3977 15.3053 18.1536 14.5018 17.6851Z" fill="#231815"/>
<path d="M12.6135 23.28H9.54147C8.61507 23.28 8.61315 24.72 9.54147 24.72H12.6135C13.5399 24.72 13.5418 23.28 12.6135 23.28Z" fill="#231815"/>
<path d="M13.775 29.0717L11.1168 30.6077C10.3142 31.0714 11.039 32.3155 11.8435 31.8557L14.5017 30.3197C15.3043 29.856 14.5795 28.6118 13.775 29.0717Z" fill="#231815"/>
<path d="M17.6852 33.4982L16.1492 36.1565C15.6845 36.961 16.9287 37.6867 17.3972 36.8832L18.9332 34.225C19.3978 33.4205 18.1536 32.6947 17.6852 33.4982Z" fill="#231815"/>
<path d="M23.28 35.3866V38.4586C23.28 39.385 24.72 39.3869 24.72 38.4586V35.3866C24.72 34.4602 23.28 34.4582 23.28 35.3866Z" fill="#231815"/>
<path d="M29.0717 34.225L30.6077 36.8832C31.0714 37.6858 32.3156 36.961 31.8557 36.1565L30.3197 33.4982C29.8561 32.6957 28.6119 33.4205 29.0717 34.225Z" fill="#231815"/>
<path d="M33.4983 30.3149L36.1565 31.8509C36.961 32.3155 37.6868 31.0714 36.8833 30.6029L34.225 29.0669C33.4205 28.6022 32.6948 29.8464 33.4983 30.3149Z" fill="#231815"/>
<path d="M35.3866 24.72H38.4586C39.385 24.72 39.3869 23.28 38.4586 23.28H35.3866C34.4602 23.28 34.4582 24.72 35.3866 24.72Z" fill="#231815"/>
<path d="M34.225 18.9283L36.8832 17.3923C37.6858 16.9286 36.961 15.6845 36.1565 16.1443L33.4982 17.6803C32.6957 18.144 33.4205 19.3882 34.225 18.9283Z" fill="#231815"/>
<path d="M30.3149 14.5018L31.8509 11.8435C32.3155 11.0391 31.0714 10.3133 30.6029 11.1168L29.0669 13.7751C28.6022 14.5795 29.8464 15.3053 30.3149 14.5018Z" fill="#231815"/>
</svg>
